<?xml version="1.0" encoding="UTF-8" standalone="no"?><!DOCTYPE svg PUBLIC "-//W3C//DTD SVG 1.1//EN" "http://www.w3.org/Graphics/SVG/1.1/DTD/svg11.dtd"><svg width="100%" height="100%" viewBox="0 0 3334 3334" version="1.1" xmlns="http://www.w3.org/2000/svg" xmlns:xlink="http://www.w3.org/1999/xlink" xml:space="preserve" xmlns:serif="http://www.serif.com/" style="fill-rule:evenodd;clip-rule:evenodd;stroke-linejoin:round;stroke-miterlimit:2;"><path d="M2768.333,558.646c-280.208,-280.208 -667.292,-453.542 -1094.896,-453.542c-855.104,-0 -1548.438,693.229 -1548.438,1548.438c-0,284.583 76.771,551.146 210.625,780.313l-3.958,-7.292l-219.688,802.292l820.729,-215.312c213.646,118.646 468.542,188.438 739.792,188.438l0.625,0c855.104,-0.312 1548.125,-693.646 1548.125,-1548.75c0,-427.396 -173.125,-814.271 -453.021,-1094.479l0.104,-0.104Zm-1095.208,2381.771l-0.625,0c-241.562,0 -467.604,-66.667 -660.625,-182.604l5.833,3.229l-46.979,-27.812l-486.979,127.812l129.896,-474.896l-30.625,-48.646c-123.438,-193.958 -196.771,-430.313 -196.771,-683.854c0,-710.625 576.146,-1286.771 1286.771,-1286.771c710.625,0 1286.771,576.146 1286.771,1286.771c0,710.625 -576.042,1286.771 -1286.771,1286.771l0.104,0Zm705.833,-963.646c-38.646,-19.375 -228.854,-112.812 -264.271,-125.833c-35.521,-12.917 -61.354,-19.271 -87.188,19.479c-25.625,38.646 -99.792,125.729 -122.396,151.562c-22.5,25.937 -45.208,29.062 -83.854,9.792c-119.792,-48.542 -222.708,-113.229 -312.188,-192.917l1.042,0.938c-83.229,-77.083 -154.583,-165.312 -212.188,-262.604l-2.917,-5.417c-22.5,-38.646 -2.396,-59.583 16.875,-78.854c17.396,-17.292 38.75,-45.208 58.021,-67.708c15.208,-18.646 28.229,-40 38.125,-62.917l0.625,-1.771c4.479,-9.062 7.083,-19.583 7.083,-30.833c0,-13.646 -3.854,-26.354 -10.521,-37.188l0.208,0.313c-9.792,-19.375 -87.083,-209.792 -119.271,-287.292c-31.458,-75.417 -63.438,-65.104 -87.083,-66.354c-22.5,-1.042 -48.333,-1.25 -74.167,-1.25c-41.146,1.042 -77.708,19.583 -102.917,48.229l-0.104,0.208c-83.542,79.271 -135.417,191.042 -135.417,314.896c0,2.708 0,5.521 0.104,8.229l0,-0.417c13.646,152.812 70.938,290 159.062,401.771l-1.25,-1.563c167.083,247.813 389.792,446.042 651.146,579.583l9.792,4.479c57.083,25.833 130.208,53.438 205,77.083l15.521,4.271c46.042,14.583 99.062,23.021 154.062,23.021c31.563,0 62.604,-2.812 92.604,-8.125l-3.229,0.417c111.354,-23.229 203.75,-90.417 260.104,-182.188l0.938,-1.771c17.188,-38.125 27.188,-82.604 27.188,-129.375c0,-19.271 -1.667,-38.125 -4.896,-56.458l0.312,1.979c-9.583,-16.146 -35.417,-25.729 -74.167,-45.208l0.208,-0.208Z" style="fill:#fff;fill-rule:nonzero;"/></svg>